<?xml version="1.0" encoding="utf-8"?>
<!-- Generator: Adobe Illustrator 25.0.0, SVG Export Plug-In . SVG Version: 6.00 Build 0)  -->
<svg version="1.1" id="Layer_1" xmlns="http://www.w3.org/2000/svg" xmlns:xlink="http://www.w3.org/1999/xlink" x="0px" y="0px"
	 viewBox="0 0 422.37 58.01" style="enable-background:new 0 0 422.37 58.01;" xml:space="preserve">
<style type="text/css">
	.st0{fill:#007DF0;}
	.st1{fill:#FFFFFF;}
</style>
<g>
	<path class="st0" d="M171.09,27.86C171.73,44.37,158.45,58,142.05,58c-1.21,0-2.42-0.07-3.62-0.22c-1.17-0.15-2.34-0.36-3.49-0.65
		c-1.13-0.28-2.24-0.64-3.33-1.05c-1.07-0.41-2.12-0.89-3.14-1.43c-1.01-0.53-1.99-1.13-2.93-1.78c-0.92-0.63-1.78-1.33-2.63-2.05
		c-0.54-0.46-1.05-0.95-1.54-1.45c-0.43-0.44-0.86-0.87-1.18-1.39c-0.58-0.92-0.88-2-0.87-3.09c0.01-1.11,0.35-2.2,0.97-3.12
		c1.1-1.64,2.9-2.52,4.74-2.52c1.1,0,2.2,0.32,3.18,0.97l0,0c0.29,0.2,0.56,0.45,0.8,0.69c0.17,0.17,0.34,0.36,0.52,0.54
		c3.2,3.21,7.63,5.2,12.52,5.2c10.22,0,18.44-8.7,17.61-19.07c-0.69-8.71-7.81-15.65-16.55-16.17c-6.38-0.38-12.09,2.65-15.49,7.42
		c-0.47,0.51-1.57,2.11-2.88,4.06c-1.3,1.96-2.8,4.28-4.06,6.26c-0.93,1.46-1.83,2.86-2.68,4.19l-3.44,5.1l-3.05,4.53
		c-0.11,0.15-0.2,0.31-0.29,0.48c-1.35,1.87-2.53,3.33-3.52,4.32c-5.33,6.27-13.28,10.25-22.15,10.25
		c-12.68,0-23.49-8.15-27.45-19.47c-2.82,4.23-5.09,7.37-6.82,9.13C45.85,54.11,37.64,58.17,28.51,58
		C13.19,57.72,0.61,45.43,0.02,30.15C-0.62,13.63,12.66,0,29.06,0c5.85,0,11.31,1.74,15.87,4.72C45,4.76,45.06,4.8,45.12,4.84
		l0.01,0.01c0.01,0.01,0.02,0.01,0.03,0.02c2.58,1.75,3.26,5.25,1.51,7.84l-3.68,5.46l-9.26,13.75c-1.75,2.59-5.27,3.28-7.87,1.54
		l-0.01-0.01c-2.6-1.74-3.29-5.26-1.54-7.86l9.2-13.66c-1.42-0.37-2.91-0.57-4.45-0.57c-10.03,0-18.13,8.38-17.65,18.5
		c0.43,9.04,7.8,16.36,16.86,16.76c6.05,0.26,11.47-2.52,14.84-6.94c2.18-2.17,7.57-10.52,11.47-16.65c0.74-1.17,1.43-2.23,2.05-3.2
		c3.28-5.1,4.98-7.61,6.23-8.92C68.19,4.27,76.38,0,85.56,0c5.73,0,11.08,1.66,15.59,4.53c0.31,0.2,0.62,0.4,0.93,0.62
		c1.37,1.11,2.1,2.75,2.1,4.42c0,0.92-0.22,1.86-0.69,2.71l-0.6,0.89c-1.11,1.36-2.75,2.09-4.41,2.09c-0.87,0-1.75-0.2-2.56-0.61
		c-0.2-0.1-0.4-0.21-0.59-0.34c-0.01-0.01-0.02-0.01-0.02-0.02c-0.01-0.01-0.01-0.01-0.02-0.01c-0.18-0.12-0.36-0.23-0.54-0.34
		c-2.68-1.63-5.82-2.56-9.17-2.56c-5.95,0-11.22,2.95-14.42,7.46c0,0-0.01,0.01-0.01,0.01c-3.02,4.25-4.2,9.9-2.38,15.77
		c1.69,5.44,6.06,9.68,11.55,11.28c7.77,2.26,15.12-0.71,19.31-6.19c2.11-2.11,11.11-16.08,11.11-16.08l3.68-5.61
		c0,0,4.51-6.6,4.94-7.06c5.51-6.89,14.1-11.22,23.67-10.92C158.16,0.5,170.5,12.73,171.09,27.86z"/>
	<g>
		<polygon class="st1" points="171.71,13.83 185.75,13.83 185.75,56.32 199.36,56.32 199.36,13.83 213.47,13.83 213.47,1.84 
			171.71,1.84 		"/>
		<path class="st1" d="M260.63,20.75c0-12.02-7.16-18.91-19.63-18.91h-21.37v54.48h13.08V38.98h4.08l11.08,17.34h15.73l-12.95-19.28
			C257.18,34.2,260.63,28.58,260.63,20.75z M232.7,13.68h6.25c4.98,0,7.84,2.46,7.84,6.76c0,4.36-2.87,6.76-8.07,6.76h-6.02V13.68z"
			/>
		<path class="st1" d="M300.46,32.79c0,7.1-3.67,11.69-9.36,11.69c-6.74,0-9.13-6.29-9.13-11.69V1.84h-13.46v31.71
			c0,14.47,8.66,23.45,22.59,23.45c14.24,0,22.74-8.77,22.74-23.45V1.84h-13.38V32.79z"/>
		<path class="st1" d="M361,38.24c-3.21,3.83-7.53,5.93-12.17,5.93c-8.32,0-14.14-6.18-14.14-15.02c0-8.98,5.78-15.25,14.06-15.25
			c6.11,0,10.25,3.81,12.17,6.08l0.23,0.27l9.79-8.41l-0.22-0.27c-5.49-6.68-13.5-10.5-21.98-10.5c-16.82,0-28.13,11.28-28.13,28.07
			c0,16.92,11.07,27.84,28.2,27.84c8.61,0,16.62-3.77,21.98-10.35l0.22-0.27l-9.79-8.41L361,38.24z"/>
		<polygon class="st1" points="402.05,25.54 421.79,1.84 404.84,1.84 389.59,21.94 389.59,1.84 376.21,1.84 376.21,56.32 
			389.59,56.32 389.59,40.56 393.22,36.12 405.96,56.32 422.37,56.32 		"/>
	</g>
</g>
</svg>
